<svg xmlns="http://www.w3.org/2000/svg" xmlns:xlink="http://www.w3.org/1999/xlink" version="1.1" x="0px" y="0px" viewBox="2 0 55 50" enable-background="new 0 0 58 48" xml:space="preserve"><path fill-rule="evenodd" clip-rule="evenodd" d="M5,43V13h48v30H5z M51,41V15H7v26H51z M9,9h40v2H9V9z M13,5h32v2H13V5z   M23.651,35.008L17,28l6.651-7.009l1.365,1.407L19.73,28h0l5.286,5.602L23.651,35.008z M34.349,20.992L41,28l-6.651,7.009  l-1.365-1.407L38.27,28h0l-5.286-5.602L34.349,20.992z"/><text x="0" y="63" fill="#000000" font-size="5px" font-weight="bold" font-family="'Helvetica Neue', Helvetica, Arial-Unicode, Arial, Sans-serif">Created by David Ly</text><text x="0" y="68" fill="#000000" font-size="5px" font-weight="bold" font-family="'Helvetica Neue', Helvetica, Arial-Unicode, Arial, Sans-serif">from the Noun Project</text></svg>