<?xml version="1.0" encoding="UTF-8"?>
<svg width="50px" height="49px" viewBox="0 0 50 49" version="1.1" xmlns="http://www.w3.org/2000/svg" xmlns:xlink="http://www.w3.org/1999/xlink">
    <!-- Generator: Sketch 49.3 (51167) - http://www.bohemiancoding.com/sketch -->
    <title>Shape</title>
    <desc>Created with Sketch.</desc>
    <defs></defs>
    <g id="Page-1" stroke="none" stroke-width="1" fill="none" fill-rule="evenodd">
        <g id="Octicons-mark-github" fill="#FFFFFF" fill-rule="nonzero">
            <path d="M25,0 C11.1938477,0 0,11.2444945 0,25.1131131 C0,36.2104605 7.1625,45.6217467 17.0974609,48.9417297 C18.347168,49.1716717 18.803418,48.3960591 18.803418,47.7338969 C18.803418,47.1360871 18.7805176,45.1557808 18.7683105,43.0589339 C11.8164062,44.5763644 10.3469727,40.0975976 10.3469727,40.0975976 C9.20869141,37.1975726 7.57138672,36.4250501 7.57138672,36.4250501 C5.29936523,34.8677427 7.74375,34.8983984 7.74375,34.8983984 C10.2538086,35.0731111 11.575293,37.4857357 11.575293,37.4857357 C13.8061523,41.3238238 17.4285645,40.2140891 18.8506836,39.5703203 C19.0779297,37.9517017 19.7249023,36.841967 20.4375977,36.2165916 C14.8879883,35.582044 9.05,33.4269269 9.05,23.8040921 C9.05,21.0603864 10.0250488,18.8225726 11.6210938,17.0644585 C11.3662598,16.4268208 10.5056641,13.8716597 11.8682617,10.4152713 C11.8682617,10.4152713 13.9648438,9.74084685 18.7438477,12.9903463 C20.7366211,12.4308929 22.8744141,12.154992 24.9999512,12.1457708 C27.1239746,12.154992 29.2632324,12.4339339 31.2591309,12.9933874 C36.0290527,9.74084685 38.1286621,10.4183123 38.1286621,10.4183123 C39.4958496,13.8777908 38.6352539,16.4298619 38.3789062,17.0644585 C39.9810547,18.8225726 40.9484863,21.0604354 40.9484863,23.8040921 C40.9484863,33.4514515 35.1013184,35.5758639 29.5318848,36.1981982 C30.4321777,36.9768519 31.2286621,38.5035035 31.2286621,40.8455956 C31.2286621,44.2024144 31.1950684,46.9092843 31.1950684,47.736987 C31.1950684,48.4052803 31.6497559,49.186975 32.9162598,48.9417297 C42.8436523,45.6156156 50,36.2043293 50,25.1131131 C50,11.2444945 38.8061523,0 25,0 Z" id="Shape"></path>
        </g>
    </g>
</svg>