<svg
  xmlns="http://www.w3.org/2000/svg"
  xmlns:xlink="http://www.w3.org/1999/xlink"
  version="1.1"
  x="0px"
  y="0px"
  viewBox="3 3 26 26"
  enable-background="new 0 0 32 32"
  xml:space="preserve"
>
  <g>
    <g>
      <path d="M21.918,16.507l-3.591,0.599C17.966,16.169,17.062,15.5,16,15.5c-1.378,0-2.5,1.121-2.5,2.5s1.122,2.5,2.5,2.5    c1.347,0,2.441-1.072,2.491-2.408l3.591-0.599L21.918,16.507z M16,19.5c-0.827,0-1.5-0.673-1.5-1.5s0.673-1.5,1.5-1.5    s1.5,0.673,1.5,1.5S16.827,19.5,16,19.5z" />
      <path d="M16,7.5C9.659,7.5,4.5,12.659,4.5,19v5.5h23V19C27.5,12.659,22.341,7.5,16,7.5z M5.5,23.5v-4H8v-1H5.525    c0.119-2.518,1.125-4.801,2.717-6.551l1.748,1.747l0.707-0.707l-1.748-1.747c1.75-1.592,4.033-2.598,6.551-2.717V9v2h1V9V8.525    c2.518,0.119,4.801,1.125,6.551,2.717l-1.748,1.747l0.707,0.707l1.748-1.747c1.592,1.75,2.598,4.033,2.717,6.551H24v1h2.5v4H5.5z" />
    </g>
  </g>
  <text
    x="0"
    y="47"
    fill="#000000"
    font-size="5px"
    font-weight="bold"
    font-family="'Helvetica Neue', Helvetica, Arial-Unicode, Arial, Sans-serif"
  >
    Created by Ralf Schmitzer
  </text>
  <text
    x="0"
    y="52"
    fill="#000000"
    font-size="5px"
    font-weight="bold"
    font-family="'Helvetica Neue', Helvetica, Arial-Unicode, Arial, Sans-serif"
  >
    from the Noun Project
  </text>
</svg>
