<svg width="73" height="16" viewBox="0 0 73 16" version="1.1" xmlns="http://www.w3.org/2000/svg" xmlns:xlink="http://www.w3.org/1999/xlink">
<g id="Canvas" fill="none">
<g id="logo">
<g id="Logo">
<g id="Fill 10">
<path fill-rule="evenodd" clip-rule="evenodd" d="M 11.3398 8.77881L 11.3398 0.368652C 11.3398 0.123535 11.4609 0 11.7031 0L 14.4736 0L 14.4736 8.91699C 14.4736 13.6133 11.5215 15.2554 7.2373 15.2554C 2.95215 15.2554 0 13.6133 0 8.91699L 0 0.368652C 0 0.123535 0.121094 0 0.363281 0L 3.13379 0L 3.13379 8.77881C 3.13379 11.5874 4.36035 12.7539 7.2373 12.7539C 10.1133 12.7539 11.3398 11.5874 11.3398 8.77881ZM 51.5039 2.44043C 51.7305 2.44043 51.8369 2.36377 51.9121 2.19531L 52.7148 0.18457C 52.7598 0.0615234 52.7148 0 52.5938 0L 41.4355 0C 40.3906 0 39.9971 0.322266 39.9971 1.04395L 39.9971 14.1045C 39.9971 14.7183 40.2998 14.9946 41.1025 14.9946L 51.5039 14.9946C 51.7305 14.9946 51.8369 14.9175 51.9121 14.749L 52.7148 12.7383C 52.7598 12.6157 52.7148 12.5542 52.5938 12.5542L 43.0703 12.5542L 43.0703 9.89941C 43.0703 8.97852 43.5703 8.56396 44.917 8.56396L 49.0508 8.56396C 49.2783 8.56396 49.3838 8.4873 49.459 8.31836L 50.2314 6.38428C 50.2773 6.26221 50.2314 6.20068 50.1104 6.20068L 43.0703 6.20068L 43.0703 2.44043L 51.5039 2.44043ZM 66.2715 6.95215L 61.124 6.95215L 61.124 2.40967L 66.2715 2.40967C 68.1943 2.40967 68.6182 3.16162 68.6182 4.68115C 68.6182 6.21582 68.1943 6.95215 66.2715 6.95215ZM 72.0557 14.7339L 68.7393 8.96289C 70.3896 8.53369 71.7227 7.42871 71.7227 4.61963C 71.7227 0.982422 69.4961 0.000488281 65.8174 0.000488281L 59.4893 0.000488281C 58.4443 0.000488281 58.0508 0.322266 58.0508 1.04395L 58.0508 14.6265C 58.0508 14.8716 58.1719 14.9946 58.4141 14.9946L 61.124 14.9946L 61.124 10.6206C 61.124 9.69971 61.624 9.28564 62.9707 9.28564L 65.6963 9.28564L 68.6943 14.749C 68.7852 14.9028 68.876 14.9946 69.1025 14.9946L 71.9189 14.9946C 72.1162 14.9946 72.1162 14.8252 72.0557 14.7339ZM 23.4873 12.585L 28.9541 12.585C 30.6953 12.585 31.1797 11.9399 31.1797 10.5591C 31.1797 9.17773 30.6953 8.50244 28.9541 8.50244L 25.334 8.50244C 23.9873 8.50244 23.4873 8.91699 23.4873 9.8374L 23.4873 12.585ZM 28.3789 2.40967L 23.4873 2.40967L 23.4873 6.24707L 28.3789 6.24707C 30.0146 6.24707 30.4688 5.62256 30.4688 4.32812C 30.4688 3.03467 30.0146 2.40967 28.3789 2.40967ZM 33.5713 3.80664C 33.5713 5.2334 33.0713 6.44629 31.8613 7.09033C 33.5264 7.53613 34.2832 9.05518 34.2832 10.8506C 34.2832 13.8433 32.1943 14.9946 29.2725 14.9946L 21.5205 14.9946C 20.7178 14.9946 20.415 14.7183 20.415 14.1045L 20.415 1.04395C 20.415 0.322266 20.8086 0 21.8535 0L 28.1514 0C 30.9072 0 33.5713 0.491211 33.5713 3.80664Z" transform="translate(0 0.470215)" fill="white"/>
</g>
</g>
</g>
</g>
</svg>

